<svg xmlns="http://www.w3.org/2000/svg" width="31.429" height="27.5" viewBox="0 0 31.429 27.5">
  <g id="Icon_ionic-ios-cloud-upload" data-name="Icon ionic-ios-cloud-upload" transform="translate(0 -2.25)">
    <path id="Trazado_280" data-name="Trazado 280" d="M26.831,10.463A9.207,9.207,0,0,0,10.1,6.222,4.351,4.351,0,0,0,8.453,5.9,4.546,4.546,0,0,0,4.07,10.4,6,6,0,0,0,0,16.092a5.773,5.773,0,0,0,5.58,5.8h9.336v-8.71l-2.94,2.9a.8.8,0,1,1-1.123-1.136l4.3-4.235h0a.781.781,0,0,1,.252-.166.762.762,0,0,1,.307-.061.8.8,0,0,1,.559.227l4.3,4.235A.8.8,0,0,1,19.44,16.08l-2.928-2.9v8.71h9.336a5.777,5.777,0,0,0,.982-11.43Z" fill="#fff"/>
    <path id="Trazado_281" data-name="Trazado 281" d="M17.086,31.809a.8.8,0,1,0,1.6,0V24.75h-1.6Z" transform="translate(-2.17 -2.857)" fill="#fff"/>
  </g>
</svg>
