<svg xmlns="http://www.w3.org/2000/svg" viewBox="0 0 128 128" width="512" height="512"><path d="M121.553,55.362h-7.521a48.692,48.692,0,0,0-6.554-15.8L112.8,34.24a4.455,4.455,0,0,0,0-6.29L104.05,19.2a4.453,4.453,0,0,0-6.29,0l-5.326,5.326a48.7,48.7,0,0,0-15.8-6.554V10.447A4.453,4.453,0,0,0,72.189,6H59.811a4.453,4.453,0,0,0-4.449,4.447v7.521a48.7,48.7,0,0,0-15.8,6.554L34.24,19.2a4.453,4.453,0,0,0-6.29,0L19.2,27.95a4.449,4.449,0,0,0,0,6.29l5.325,5.325a48.686,48.686,0,0,0-6.553,15.8H10.447A4.452,4.452,0,0,0,6,59.81V72.189a4.453,4.453,0,0,0,4.447,4.449h7.521a48.7,48.7,0,0,0,6.554,15.8L19.2,97.76a4.448,4.448,0,0,0,0,6.289L27.95,112.8a4.449,4.449,0,0,0,6.29,0l5.326-5.325a48.692,48.692,0,0,0,15.8,6.554v7.521A4.453,4.453,0,0,0,59.811,126H72.189a4.453,4.453,0,0,0,4.449-4.447v-7.521a48.692,48.692,0,0,0,15.8-6.554L97.76,112.8a4.449,4.449,0,0,0,6.29,0l8.754-8.754a4.454,4.454,0,0,0,0-6.289l-5.326-5.326a48.7,48.7,0,0,0,6.554-15.8h7.521A4.453,4.453,0,0,0,126,72.189V59.81A4.452,4.452,0,0,0,121.553,55.362Z" fill="#2fcbc0"/></svg>

